<svg xmlns="http://www.w3.org/2000/svg" viewBox="0 0 110.89 110.89"><title>AC</title><g id="Layer_2" data-name="Layer 2"><g id="Layer_1-2" data-name="Layer 1"><polygon points="110.89 54.7 84.98 54.7 97.56 42.12 96.5 41.05 82.86 54.7 57.26 54.7 73.68 38.27 92.97 38.27 92.97 36.77 75.18 36.77 95.18 16.77 94.12 15.71 74.12 35.71 74.12 17.92 72.62 17.92 72.62 37.21 56.2 53.63 56.2 28.03 69.84 14.39 68.78 13.33 56.2 25.91 56.2 0 54.7 0 54.7 25.91 42.12 13.33 41.05 14.39 54.7 28.03 54.7 53.63 38.32 37.26 38.32 17.97 36.82 17.97 36.82 35.76 16.77 15.71 15.71 16.77 35.76 36.82 17.97 36.82 17.97 38.32 37.26 38.32 53.63 54.7 28.03 54.7 14.39 41.05 13.33 42.12 25.91 54.7 0 54.7 0 56.2 25.91 56.2 13.33 68.78 14.39 69.84 28.03 56.2 53.63 56.2 37.24 72.59 17.95 72.59 17.95 74.09 35.74 74.09 15.71 94.12 16.77 95.18 36.8 75.15 36.8 92.95 38.3 92.95 38.3 73.65 54.7 57.26 54.7 82.86 41.05 96.5 42.12 97.56 54.7 84.98 54.7 110.89 56.2 110.89 56.2 84.98 68.78 97.56 69.84 96.5 56.2 82.86 56.2 57.26 72.62 73.68 72.62 92.97 74.12 92.97 74.12 75.18 94.12 95.18 95.18 94.12 75.18 74.12 92.97 74.12 92.97 72.62 73.68 72.62 57.26 56.2 82.86 56.2 96.5 69.84 97.56 68.78 84.98 56.2 110.89 56.2 110.89 54.7"/></g></g></svg>