<svg xmlns="http://www.w3.org/2000/svg" viewBox="0 0 1079.56 653.46"><title>Bike</title><g id="Layer_2" data-name="Layer 2"><g id="Layer_1-2" data-name="Layer 1"><path d="M866.51,213.23V14.31h99.37V0H859.35l-5.06,2.1L539.78,316.61,333.89,110.72V7.16L326.73,0H220.21V14.31h99.36v99.37l2.1,5.06,208,208-89.94,89.93C431.2,303,336,213.05,220.21,213.05,98.78,213.05,0,311.84,0,433.26s98.78,220.2,220.21,220.2c120.4,0,218.48-97.14,220.12-217.16L757.89,118.74h0l94.3-94.3V213.23c-118.11,3.8-213,101-213,220,0,121.42,98.78,220.2,220.2,220.2s220.21-98.78,220.21-220.2C1079.56,314.24,984.62,217,866.51,213.23ZM220.21,639.15c-113.53,0-205.9-92.36-205.9-205.89s92.37-205.89,205.9-205.89c111.11,0,201.71,88.53,205.52,198.74H220.21v14.31H425.73C421.92,550.62,331.32,639.15,220.21,639.15Zm639.14,0c-113.53,0-205.89-92.36-205.89-205.89,0-111.12,88.53-201.71,198.73-205.53V433.26h14.32V227.73c110.2,3.82,198.73,94.41,198.73,205.53C1065.24,546.79,972.88,639.15,859.35,639.15Z"/></g></g></svg>