<svg xmlns="http://www.w3.org/2000/svg" viewBox="0 0 131.62 83.43"><title>Suspended</title><g id="Layer_2" data-name="Layer 2"><g id="Layer_1-2" data-name="Layer 1"><path d="M131.62,1.5V0H0V1.5H24.1v57H16.85l-.75.75v6.1H0v1.5H131.62v-1.5h-16.1v-6.1l-.75-.75h-7.25V1.5Zm-106,0H65.06v57H57.81l-.75.75v6.1H33.59v-6.1l-.75-.75H25.6ZM17.6,60h6.5v5.35H17.6Zm8,5.35V60h6.49v5.35Zm33-5.35h6.5v5.35h-6.5Zm8,5.35V60h6.49v5.35Zm33,0V60H106v5.35ZM114,60v5.35h-6.5V60Zm-8-1.5H98.78l-.75.75v6.1H74.55v-6.1l-.75-.75H66.56V1.5H106Z"/><rect y="81.93" width="131.62" height="1.5"/></g></g></svg>