<svg xmlns="http://www.w3.org/2000/svg" xmlns:xlink="http://www.w3.org/1999/xlink" viewBox="0 0 1871.36 1028.87"><defs><style>.cls-1{fill:none;}.cls-2{clip-path:url(#clip-path);}.cls-3{opacity:0.3;}</style><clipPath id="clip-path"><rect class="cls-1" x="135.68" y="32.49" width="1600" height="855.37"/></clipPath></defs><title>Asset 1</title><g id="Layer_2" data-name="Layer 2"><g id="Layer_1-2" data-name="Layer 1"><g class="cls-2"><g class="cls-3"><rect x="567.79" y="325.89" width="260.71" height="65.18"/><path d="M1871.36,44.78,1825.11.18H1526.54l-46.24,44.6V607.36l46.24,44.6h298.57l46.25-44.6ZM1568.65,457h35.26l150.16-146.77c10.68-10.68,28.94-3.12,28.94,12V537.52a17,17,0,0,1-17,17H1585.6a17,17,0,0,1-16.95-17ZM1783,191.66h-35.26L1597.59,341.82c-10.68,10.67-28.94,3.11-28.94-12V114.61a17,17,0,0,1,16.95-17h180.46a17,17,0,0,1,17,17Z"/><path d="M313.7,355h35.37V782.14h88.35V.18H349.07V219.8c0,15.06-18.17,22.64-28.87,12L88.35.18H0v782H88.35V171.22c0-15.11,18.29-22.67,29-12Z"/><path d="M796.06,260.71l32.44-31.28v-197L797.22,0h-197L567.79,31.28v197l31.28,32.44Zm-49.68-65.18H649.92A16.94,16.94,0,0,1,633,178.59V82.13a17,17,0,0,1,16.95-16.95h96.46a16.94,16.94,0,0,1,16.94,16.95v96.46A16.93,16.93,0,0,1,746.38,195.53Z"/><path d="M1066.13,233.85,1234,.18H1117.53L958.86,217.72V984.27l46.25,44.6h298.57l46.25-44.6v-679l-46.25-44.6H1079.91A17,17,0,0,1,1066.13,233.85Zm195.44,689.71a17,17,0,0,1-17,17H1064.16a17,17,0,0,1-17-17V365.48a17,17,0,0,1,17-17h180.46a17,17,0,0,1,17,17Z"/></g></g></g></g></svg>