<svg xmlns="http://www.w3.org/2000/svg" viewBox="0 0 71.31 126.78"><title>Disabled</title><g id="Layer_2" data-name="Layer 2"><g id="Layer_1-2" data-name="Layer 1"><path d="M71.09,100.58,46.39,75.87V51.26l-.14-.43L37.5,38.37l-1.14-.1L23.9,50.73,11.43,63.19v1.06L24.12,76.94a24.93,24.93,0,1,0,24.24,33.43V126h1.5V101.85l-.75-.75H25.68V78.5L36.36,89.18l1.06-1.06L13,63.72,25,51.79,36.79,40l8.1,11.54V76.18l.22.53,24.7,24.71V126h1.5V101.11Zm-22.75,2A23.43,23.43,0,1,1,24.18,78.44v23.41l.75.75Z"/><path d="M37,26.83A13.42,13.42,0,1,0,23.6,13.41,13.43,13.43,0,0,0,37,26.83ZM37,1.5A11.92,11.92,0,1,1,25.1,13.41,11.92,11.92,0,0,1,37,1.5Z"/></g></g></svg>