<svg xmlns="http://www.w3.org/2000/svg" viewBox="0 0 115.16 115.16"><title>Lighting</title><g id="Layer_2" data-name="Layer 2"><g id="Layer_1-2" data-name="Layer 1"><path d="M57.58,85.62a28,28,0,0,1-.75-56.07V45.9h1.5V28.79L57.58,28A29.54,29.54,0,1,0,87.12,57.58h-1.5A28.07,28.07,0,0,1,57.58,85.62Z"/><path d="M115.16,58.33v-1.5H98.78A41.1,41.1,0,0,0,87.23,29l11.59-11.6-1.06-1.06L86.17,27.93A41.05,41.05,0,0,0,58.33,16.38V0h-1.5V16.38A41.05,41.05,0,0,0,29,27.93L17.4,16.33l-1.07,1.06L27.93,29A41.05,41.05,0,0,0,16.38,56.83H0v1.5H16.38A41.05,41.05,0,0,0,27.93,86.17L16.33,97.76l1.07,1.06L29,87.23A41.1,41.1,0,0,0,56.83,98.78v16.38h1.5V98.78A41.1,41.1,0,0,0,86.17,87.23L97.76,98.82l1.06-1.06L87.23,86.17A41.1,41.1,0,0,0,98.78,58.33Zm-57.58,39A39.72,39.72,0,1,1,97.3,57.58,39.77,39.77,0,0,1,57.58,97.3Z"/></g></g></svg>