<svg xmlns="http://www.w3.org/2000/svg" viewBox="0 0 79.99 43.98"><title>Asset 2</title><g id="Layer_2" data-name="Layer 2"><g id="Layer_1-2" data-name="Layer 1"><rect x="24.27" y="13.93" width="11.14" height="2.79"/><path d="M80,1.91,78,0H65.25l-2,1.9V26l2,1.91H78L80,26ZM67.05,19.53h1.5L75,13.26a.73.73,0,0,1,1.24.51V23a.73.73,0,0,1-.73.73H67.77a.73.73,0,0,1-.72-.73ZM76.21,8.19H74.7l-6.42,6.42a.72.72,0,0,1-1.23-.51V4.9a.73.73,0,0,1,.72-.73h7.71a.73.73,0,0,1,.73.73Z"/><path d="M13.41,15.17h1.51V33.43H18.7V0H14.92V9.39a.72.72,0,0,1-1.23.52L3.78,0H0V33.43H3.78V7.32A.72.72,0,0,1,5,6.81Z"/><path d="M34,11.14l1.38-1.33V1.39L34.07,0H25.66L24.27,1.34V9.76l1.34,1.38ZM31.9,8.36H27.78a.73.73,0,0,1-.73-.73V3.51a.73.73,0,0,1,.73-.72H31.9a.73.73,0,0,1,.73.72V7.63A.73.73,0,0,1,31.9,8.36Z"/><path d="M45.57,10,52.74,0h-5L41,9.31V42.07L43,44H55.72l2-1.91v-29l-2-1.91H46.16A.72.72,0,0,1,45.57,10Zm8.35,29.47a.72.72,0,0,1-.72.73H45.48a.72.72,0,0,1-.72-.73V15.62a.72.72,0,0,1,.72-.72H53.2a.72.72,0,0,1,.72.72Z"/></g></g></svg>