<svg xmlns="http://www.w3.org/2000/svg" viewBox="0 0 115.76 115.98"><title>Reception</title><g id="Layer_2" data-name="Layer 2"><g id="Layer_1-2" data-name="Layer 1"><path d="M115.76,57.57,87.08,28.89H86L57.57,57.35H.53L0,58.63,28.67,87.3l.53.22H57.13v27.93l1.28.53,57.35-57.35-.31-.75ZM86.55,30.48l26.87,26.87H59.69ZM58.63,113.64V86.77L57.88,86H29.52L2.34,58.85H113.42Z"/><path d="M86.55,24.44A12.22,12.22,0,1,0,74.33,12.22,12.23,12.23,0,0,0,86.55,24.44Zm0-22.94A10.72,10.72,0,1,1,75.83,12.22,10.73,10.73,0,0,1,86.55,1.5Z"/></g></g></svg>