<svg xmlns="http://www.w3.org/2000/svg" viewBox="0 0 105.95 66.9"><title>Meeting</title><g id="Layer_2" data-name="Layer 2"><g id="Layer_1-2" data-name="Layer 1"><path d="M96.22,5.92l-.53-.22H10.26l-.53.22L5.92,9.73l-.22.53V56.64l.22.53L9.73,61l.53.22H95.69l.53-.22,3.8-3.81.22-.53V10.26L100,9.73Zm2.52,50.41L95.38,59.7H10.57L7.2,56.33V10.57L10.57,7.2H95.38l3.36,3.37Z"/><rect x="9.89" y="65.4" width="20.71" height="1.5"/><rect x="42.62" y="65.4" width="20.71" height="1.5"/><rect x="74.56" y="65.4" width="20.71" height="1.5"/><rect x="9.56" width="21" height="1.5"/><rect x="42.56" width="21" height="1.5"/><rect y="10.25" width="1.5" height="17.97"/><rect y="38.31" width="1.5" height="17.97"/><rect x="104.45" y="10.25" width="1.5" height="17.97"/><rect x="104.45" y="38.31" width="1.5" height="17.97"/><rect x="74.56" width="21" height="1.5"/></g></g></svg>