<svg xmlns="http://www.w3.org/2000/svg" viewBox="0 0 417.49 217.03"><defs><style>.cls-1{fill:#191919;}.cls-2{fill:#f7f7f7;}</style></defs><title>No.60 Logo Map</title><g id="Layer_2" data-name="Layer 2"><g id="Layer_1-2" data-name="Layer 1"><polygon class="cls-1" points="398.03 0 19.47 0 0 19.47 0 163.5 19.47 182.96 174.69 182.96 208.75 217.03 242.81 182.96 398.03 182.96 417.49 163.5 417.49 19.47 398.03 0"/><rect class="cls-2" x="161.81" y="68.19" width="32.21" height="8.05"/><path class="cls-2" d="M322.84,33.46,317.13,28H280.25l-5.72,5.51V103l5.72,5.51h36.88l5.71-5.51ZM285.45,84.39h4.35l18.55-18.13a2.1,2.1,0,0,1,3.58,1.48V94.33a2.1,2.1,0,0,1-2.1,2.1H287.54a2.1,2.1,0,0,1-2.09-2.1Zm26.48-32.78h-4.36L289,70.16a2.09,2.09,0,0,1-3.57-1.48V42.09A2.09,2.09,0,0,1,287.54,40h22.29a2.09,2.09,0,0,1,2.1,2.09Z"/><path class="cls-2" d="M130.42,71.79h4.37v52.76H145.7V28H134.79V55.08a2.1,2.1,0,0,1-3.57,1.49L102.58,28H91.67v96.6h10.91V49.08a2.09,2.09,0,0,1,3.58-1.47Z"/><path class="cls-2" d="M190,60.14l4-3.87V31.94l-3.86-4H165.81l-4,3.87V56.13l3.86,4Zm-6.14-8H172a2.1,2.1,0,0,1-2.09-2.1V38.08A2.1,2.1,0,0,1,172,36h11.92a2.09,2.09,0,0,1,2.09,2.1V50A2.09,2.09,0,0,1,183.87,52.09Z"/><path class="cls-2" d="M223.37,56.82,244.1,28H229.72l-19.6,26.88v94.69l5.71,5.51h36.89l5.71-5.51V65.65l-5.71-5.51H225.07A2.09,2.09,0,0,1,223.37,56.82ZM247.51,142a2.09,2.09,0,0,1-2.09,2.1H223.13A2.1,2.1,0,0,1,221,142V73.08a2.09,2.09,0,0,1,2.1-2.09h22.29a2.08,2.08,0,0,1,2.09,2.09Z"/></g></g></svg>