<svg xmlns="http://www.w3.org/2000/svg" viewBox="0 0 94.54 94.54"><title>Parking</title><g id="Layer_2" data-name="Layer 2"><g id="Layer_1-2" data-name="Layer 1"><path d="M94.32,5.22l-5-5L88.79,0h-83L5.22.22l-5,5L0,5.75v83l.22.53,5,5,.53.22h83l.53-.22,5-5,.22-.53v-83ZM93,88.48,88.48,93H6.06L1.5,88.48V6.06L6.06,1.5H88.48L93,6.06Z"/><polygon points="35.17 22.94 34.42 23.69 34.42 70.85 35.92 70.85 35.92 24.44 58 24.44 58 46.51 36.73 46.52 36.73 48.02 58.75 48.01 59.5 47.26 59.5 23.69 58.75 22.94 35.17 22.94"/></g></g></svg>