<svg xmlns="http://www.w3.org/2000/svg" viewBox="0 0 83.43 164.4"><title>Lift</title><g id="Layer_2" data-name="Layer 2"><g id="Layer_1-2" data-name="Layer 1"><path d="M82.68,40.23H.75L0,41V122.9l.75.75H82.68l.75-.75V41Zm-.75,81.92H1.5V41.73H81.93Z"/><polygon points="41.71 162.81 25.89 146.98 24.83 148.04 41.18 164.4 42.24 164.4 58.6 148.04 57.54 146.98 41.71 162.81"/><polygon points="41.71 1.59 57.54 17.41 58.6 16.35 42.24 0 41.18 0 24.83 16.35 25.89 17.41 41.71 1.59"/><path d="M21.6,61.91a6.21,6.21,0,1,0-6.21-6.2A6.21,6.21,0,0,0,21.6,61.91ZM21.6,51a4.71,4.71,0,1,1-4.71,4.71A4.71,4.71,0,0,1,21.6,51Z"/><polygon points="15.45 87.27 11.48 74.48 14.76 69.56 20.82 90.53 14.31 113.06 15.76 113.48 21.6 93.24 27.45 113.48 28.89 113.06 22.38 90.53 28.44 69.56 31.71 74.47 27.45 87.25 28.88 87.73 33.25 74.6 33.16 73.94 28.79 67.38 27.45 67.59 21.6 87.83 15.76 67.59 14.41 67.38 10.04 73.94 9.94 74.58 14.02 87.71 15.45 87.27"/><path d="M59.59,62.17A6.22,6.22,0,1,0,53.37,56,6.23,6.23,0,0,0,59.59,62.17Zm0-10.94A4.72,4.72,0,1,1,54.87,56,4.72,4.72,0,0,1,59.59,51.23Z"/><path d="M51.17,84.89,51,75.32l2.3-5.91,5.35,5.35L51.07,87.42,51,87.8v6.58l.75.75h3.78l3.25,6.13-6.39,12,1.33.7,5.91-11.13L65.51,114l1.32-.71-6.39-12,3.26-6.13h3.78l.75-.75V87.8l-.11-.38L60.54,74.76l5.35-5.35,2.29,5.9-.45,9.55,1.5.07.46-9.71,0-.31-2.77-7.12-1.23-.25-6,6-6.05-6-1.23.25-2.76,7.12,0,.29.17,9.71ZM66.73,88v5.62H63.25l-.67.4-3,5.63L56.6,94l-.66-.4H52.46V88L59.59,76.1Z"/></g></g></svg>