<svg xmlns="http://www.w3.org/2000/svg" viewBox="0 0 653.9 653.9"><title>Telecom</title><g id="Layer_2" data-name="Layer 2"><g id="Layer_1-2" data-name="Layer 1"><path d="M327,0C146.67,0,0,146.67,0,327s146.67,327,327,327,327-146.67,327-326.95S507.23,0,327,0ZM52.57,481.51A313,313,0,0,1,12.05,332.9H160.5V481.51ZM481.5,172.4V321H172.4V172.4ZM180.81,160.5,327,14.36,473.09,160.5ZM160.5,321H12.05A313,313,0,0,1,52.57,172.4H160.5Zm11.9,160.51V332.9H481.5V481.51ZM473.09,493.4,327,639.54,180.81,493.4ZM493.4,332.9H641.85a313,313,0,0,1-40.52,148.61H493.4Zm0-11.9V172.4H601.33A313,313,0,0,1,641.85,321ZM594.27,160.5H489.91L341.69,12.27C448.19,17.2,541,75.27,594.27,160.5Zm-282-148.23L164,160.5H59.64C112.9,75.27,205.71,17.2,312.22,12.27ZM59.64,493.4H164L312.22,641.63C205.71,636.7,112.9,578.63,59.64,493.4ZM341.69,641.63,489.91,493.4H594.27C541,578.63,448.19,636.7,341.69,641.63Z"/></g></g></svg>