<svg xmlns="http://www.w3.org/2000/svg" viewBox="0 0 122.89 80.64"><title>Under Floor</title><g id="Layer_2" data-name="Layer 2"><g id="Layer_1-2" data-name="Layer 1"><rect width="122.89" height="1.5"/><rect y="18.09" width="122.89" height="1.5"/><path d="M98.31,34.18a34.94,34.94,0,0,0-12.52,2,33.26,33.26,0,0,1-12.06,2,33.22,33.22,0,0,1-12.06-2,34.94,34.94,0,0,0-12.52-2,35,35,0,0,0-12.52,2,33.2,33.2,0,0,1-12.05,2,33.22,33.22,0,0,1-12.06-2A35,35,0,0,0,0,34.18v1.5a33.35,33.35,0,0,1,12.06,2,34.9,34.9,0,0,0,12.52,2,35,35,0,0,0,12.52-2,33.24,33.24,0,0,1,12-2,33.26,33.26,0,0,1,12.06,2,34.94,34.94,0,0,0,12.52,2,35,35,0,0,0,12.52-2,33.26,33.26,0,0,1,12.06-2,33.3,33.3,0,0,1,12.06,2,34.9,34.9,0,0,0,12.52,2v-1.5a33.22,33.22,0,0,1-12.06-2A35,35,0,0,0,98.31,34.18Z"/><path d="M98.31,54.66a34.94,34.94,0,0,0-12.52,2,33.26,33.26,0,0,1-12.06,2,33.22,33.22,0,0,1-12.06-2,34.94,34.94,0,0,0-12.52-2,35,35,0,0,0-12.52,2,33.2,33.2,0,0,1-12.05,2,33.22,33.22,0,0,1-12.06-2A35,35,0,0,0,0,54.66v1.5a33.35,33.35,0,0,1,12.06,2,34.9,34.9,0,0,0,12.52,2,35,35,0,0,0,12.52-2,33.24,33.24,0,0,1,12-2,33.26,33.26,0,0,1,12.06,2,34.94,34.94,0,0,0,12.52,2,35,35,0,0,0,12.52-2,33.26,33.26,0,0,1,12.06-2,33.3,33.3,0,0,1,12.06,2,34.9,34.9,0,0,0,12.52,2v-1.5a33.22,33.22,0,0,1-12.06-2A35,35,0,0,0,98.31,54.66Z"/><path d="M98.31,75.14a34.67,34.67,0,0,0-12.52,2,33.3,33.3,0,0,1-12.06,2,33.26,33.26,0,0,1-12.06-2,34.67,34.67,0,0,0-12.52-2,34.76,34.76,0,0,0-12.52,2,33.24,33.24,0,0,1-12.05,2,33.26,33.26,0,0,1-12.06-2A34.76,34.76,0,0,0,0,75.14v1.5a33.35,33.35,0,0,1,12.06,2,34.9,34.9,0,0,0,12.52,2,35,35,0,0,0,12.52-2,33.24,33.24,0,0,1,12-2,33.26,33.26,0,0,1,12.06,2,34.94,34.94,0,0,0,12.52,2,35,35,0,0,0,12.52-2,33.26,33.26,0,0,1,12.06-2,33.3,33.3,0,0,1,12.06,2,34.9,34.9,0,0,0,12.52,2v-1.5a33.26,33.26,0,0,1-12.06-2A34.76,34.76,0,0,0,98.31,75.14Z"/></g></g></svg>