<svg xmlns="http://www.w3.org/2000/svg" viewBox="0 0 121.6 23.58"><defs><style>.cls-1{fill:#fff;}</style></defs><title>Asset 2</title><g id="Layer_2" data-name="Layer 2"><g id="Layer_1-2" data-name="Layer 1"><path class="cls-1" d="M45.34,5.48l3.72,8.6H41.65ZM43.65,1,34.19,22.62h3.87l2.21-5.19H50.44l2.18,5.19h4L47.15,1Z"/><path class="cls-1" d="M59.47,1.12H68c5,0,8.17,2.85,8.17,7.19v.06c0,4.82-3.87,7.34-8.6,7.34H63.25v6.91H59.47ZM67.64,12.3c2.86,0,4.64-1.6,4.64-3.84V8.4c0-2.52-1.81-3.84-4.64-3.84H63.25V12.3Z"/><path class="cls-1" d="M86.47,5.48l3.71,8.6h-7.4ZM84.78,1,75.31,22.62h3.87l2.22-5.19H91.57l2.18,5.19h4L88.28,1Z"/><polygon class="cls-1" points="117.58 1.12 111.03 11.29 104.49 1.12 100.46 1.12 100.46 22.62 104.18 22.62 104.18 7.26 110.91 17.34 111.03 17.34 117.82 7.2 117.82 22.62 121.6 22.62 121.6 1.12 117.58 1.12"/><path class="cls-1" d="M.51.51H24.26V23.07H.51ZM0,23.58H24.77V0H0Z"/><path class="cls-1" d="M22.22,21H2.55V2.56H22.22ZM2,21.54H22.73V2H2Z"/><path class="cls-1" d="M11.85,13a.35.35,0,0,0,.09-.24v-2a.37.37,0,0,0-.09-.24l-.09-.12h1.57a.51.51,0,0,0,.21,0v.65a1.16,1.16,0,0,0-.17-.18.48.48,0,0,0-.24-.08h-.64v.76h.57a.36.36,0,0,0,.24-.08l.11-.08V12l-.11-.08a.36.36,0,0,0-.24-.08h-.57v.67a.23.23,0,0,0,.08.18.19.19,0,0,0,.12,0h.42a.58.58,0,0,0,.55-.29l-.09.67H11.76Z"/><path class="cls-1" d="M14.84,11v-.34a.32.32,0,0,1,.09-.24l.08-.11h-.92l.09.11a.37.37,0,0,1,.09.24v2a.33.33,0,0,1-.09.24l-.09.12h1.82l.09-.66a.6.6,0,0,1-.55.28H15a.22.22,0,0,1-.13,0,.26.26,0,0,1-.06-.18V11Z"/><path class="cls-1" d="M10.64,13a.37.37,0,0,1-.09-.24v-2h.54a.4.4,0,0,1,.24.09.86.86,0,0,1,.17.17v-.65a.84.84,0,0,1-.21,0h-2a1,1,0,0,1-.22,0v.65a.86.86,0,0,1,.17-.17.4.4,0,0,1,.24-.09H10v2A.37.37,0,0,1,9.9,13l-.09.12h.92Z"/><path class="cls-1" d="M16.92,11v-.34a.37.37,0,0,1,.09-.24l.09-.11h-.93l.09.11a.32.32,0,0,1,.09.24v2a.3.3,0,0,1-.09.24l-.09.12H18l.09-.66a.59.59,0,0,1-.55.28h-.42a.19.19,0,0,1-.12,0,.23.23,0,0,1-.07-.18V11Z"/><path class="cls-1" d="M8.23,12l-.31-.73L7.58,12Zm1.13,1,.11.1H8.6L8.65,13c0-.06,0-.19-.06-.24l0-.06-.18-.39h-1l-.23.45c0,.12-.1.18-.09.26l.06.11H6.46L6.58,13a1.09,1.09,0,0,0,.19-.26L8,10.13,9.19,12.7a.78.78,0,0,0,.16.26Z"/><path class="cls-1" d="M19.85,12l-.31-.73L19.2,12ZM21,13l.11.1h-.86l0-.12c0-.06,0-.19-.06-.24l0-.06L20,12.26h-1l-.22.45c-.06.12-.11.18-.1.26l.06.11h-.71L18.2,13a.88.88,0,0,0,.19-.26l1.27-2.57,1.16,2.57A.77.77,0,0,0,21,13Z"/><path class="cls-1" d="M6.39,12.3a1.33,1.33,0,0,1-.93.41,1,1,0,0,1-1-1.06,1,1,0,0,1,1-1.08,1.16,1.16,0,0,1,.83.29v-.65c-.22.12-.19,0-1,0a1.48,1.48,0,1,0,.15,2.94,1.69,1.69,0,0,0,.88-.21Z"/></g></g></svg>