<?xml version="1.0" encoding="utf-8"?>
<!-- Generator: Adobe Illustrator 23.0.1, SVG Export Plug-In . SVG Version: 6.00 Build 0)  -->
<svg version="1.1" id="Layer_1" xmlns="http://www.w3.org/2000/svg" xmlns:xlink="http://www.w3.org/1999/xlink" x="0px" y="0px"
	 viewBox="0 0 104.8 72.5" style="enable-background:new 0 0 104.8 72.5;" xml:space="preserve">
<style type="text/css">
	.st0{fill:#FFFFFF;}
</style>
<g id="Group_207" transform="translate(-56.693 -1502.189)">
	<path id="Path_187" class="st0" d="M100.3,1522.1h-8.6v-4.3h8.8h0c1.1,0.1,1.9,1,1.9,2.1C102.4,1521.1,101.5,1522,100.3,1522.1
		 M91.7,1507.8h9.1h0c1,0.2,1.8,1,1.8,2.1c0,1.1-0.8,2-1.9,2.2l-9,0L91.7,1507.8z M104.5,1514.8c3.3-1.1,3.9-3.9,3.9-6.1
		c0-3.5-2.4-6.4-9.7-6.4l-13.5,0v25.9h13.4c7.3,0,9.9-3.7,9.9-7.5C108.6,1518,107,1515.7,104.5,1514.8"/>
	<path id="Path_188" class="st0" d="M138.8,1502.2h22.7l0,5.7h-16.4l0,4.2h14.8v5.7h-14.8v4.5h16.4l0,5.9h-22.7V1502.2z"/>
	<path id="Path_189" class="st0" d="M129,1510.3c-0.2,1-1,1.7-2,1.8h-8.9v-4.2h8.9c1,0,1.9,0.8,2,1.8L129,1510.3z M125.5,1502.2
		h-13.7v25.9h6.3v-10.5l7,0c2,0,3.6,1.7,3.5,3.7v6.8h6.2l0-8.4c-0.1-2.3-1.6-4.3-3.7-5c2.4-0.9,3.9-3.2,3.8-5.7
		C134.8,1503.4,130,1502.2,125.5,1502.2"/>
	<path id="Path_190" class="st0" d="M81.2,1521.9c-0.1,0-8.6,0.2-11.6-0.1c-3.7-0.1-6.5-3.2-6.4-6.9c0-3.6,2.4-6.2,6.2-6.7
		c1.8-0.2,11.6-0.1,11.7-0.1h0.2l0-5.9h-0.2l-11.1,0c-1.8,0.1-3.7,0.4-5.4,1.1c-2,0.9-3.8,2.3-5.1,4.1c-1.7,2.2-2.6,4.9-2.6,7.7
		c0,0.9,0.1,1.7,0.2,2.6c0.8,3.9,3.4,7.3,7.1,8.9c2.2,0.9,4.6,1.4,7.1,1.4l2.1,0c0,0,7.8,0,7.8,0h0.2l0-6.2L81.2,1521.9z"/>
	<path id="Path_191" class="st0" d="M60.3,1551.5v1c-0.1,1,0,2,0.2,3c0.1,0.5,0.6,0.7,1.1,0.6c0.3-0.1,0.5-0.3,0.6-0.6
		c0.2-1,0.3-2,0.2-3v-2.2c0.1-0.9,0-1.9-0.2-2.8c-0.2-0.5-0.7-0.7-1.1-0.5c-0.3,0.1-0.5,0.3-0.6,0.6c-0.2,1-0.3,2-0.2,3V1551.5z
		 M57.2,1551.5c0-1.2,0-2.4,0.1-3.7c0.1-0.6,0.2-1.2,0.5-1.7c0.3-0.5,0.8-1,1.4-1.2c0.6-0.3,1.3-0.4,2.1-0.4c0.7,0,1.4,0.1,2.1,0.4
		c0.6,0.3,1.1,0.7,1.4,1.2c0.3,0.5,0.5,1.1,0.5,1.6c0.1,1,0.2,2.1,0.2,3.1c0,1.5,0,2.6-0.1,3.3c0,0.6-0.1,1.2-0.2,1.8
		c-0.2,0.7-0.7,1.4-1.3,1.8c-0.7,0.5-1.6,0.7-2.5,0.7c-0.7,0-1.4-0.1-2.1-0.4c-0.6-0.3-1.1-0.7-1.4-1.3c-0.3-0.5-0.4-1.1-0.5-1.7
		C57.2,1553.9,57.2,1552.7,57.2,1551.5"/>
	<path id="Path_192" class="st0" d="M69.2,1558.2v-9.4h-2.7v-2.1h0.2c0.8,0,1.6-0.2,2.3-0.6c0.6-0.4,1-1,1.2-1.7h2.1v13.7H69.2z"/>
	<path id="Path_193" class="st0" d="M77.9,1553.9c0,0.6,0,1.2,0.2,1.7c0.1,0.3,0.5,0.5,0.8,0.5c0.3,0,0.6-0.2,0.7-0.5
		c0.2-0.6,0.3-1.2,0.2-1.8c0-0.6,0-1.2-0.2-1.8c-0.1-0.3-0.5-0.5-0.8-0.5c-0.3,0-0.6,0.2-0.8,0.5C78,1552.7,77.9,1553.3,77.9,1553.9
		 M78,1549.9c0.3-0.2,0.6-0.4,1-0.5c0.3-0.1,0.7-0.2,1-0.2c0.9-0.1,1.7,0.4,2.2,1.1c1.1,2.2,1,4.8-0.3,6.9c-0.8,0.9-1.9,1.3-3,1.2
		c-0.6,0-1.2-0.1-1.7-0.3c-0.5-0.2-0.9-0.5-1.3-0.9c-0.4-0.5-0.7-1.1-0.8-1.7c-0.2-1.3-0.3-2.6-0.2-4c0-1.2,0-2.3,0.1-3.5
		c0.1-0.6,0.2-1.2,0.4-1.8c0.3-0.6,0.8-1.1,1.4-1.4c0.7-0.3,1.5-0.5,2.3-0.5c1-0.1,2,0.3,2.8,0.9c0.7,0.7,1,1.6,1,2.5v0.1H80
		c0-0.3-0.1-0.7-0.2-1c-0.2-0.2-0.4-0.3-0.7-0.3c-0.3,0-0.7,0.2-0.8,0.5c-0.2,0.6-0.3,1.1-0.2,1.7c0,0.3,0,0.4,0,0.6
		S78,1549.8,78,1549.9"/>
	<path id="Path_194" class="st0" d="M86.8,1558.2v-9.4h-2.7v-2.1h0.2c0.8,0,1.6-0.2,2.3-0.6c0.6-0.4,1-1,1.2-1.7h2.1v13.7H86.8z"/>
	<path id="Path_195" class="st0" d="M101.1,1553.3v-5.5l-2.5,5.5H101.1z M100.7,1558.2v-2.6h-4.5v-2.6l4.3-8.3h3.1v8.5h1.2v2.3h-1.2
		v2.6L100.7,1558.2z"/>
	<path id="Path_196" class="st0" d="M105.4,1554.1h2.8c0,0.6,0.1,1.1,0.3,1.6c0.2,0.3,0.5,0.5,0.8,0.5c0.4,0,0.7-0.2,0.9-0.5
		c0.2-0.5,0.3-1.1,0.3-1.7c0.1-0.8,0-1.5-0.3-2.2c-0.2-0.4-0.6-0.6-1-0.6c-0.3,0-0.5,0.1-0.7,0.2c-0.2,0.2-0.4,0.4-0.4,0.7h-2.5
		l0.2-7.4h7v2.5h-4.7l-0.1,2.5c0.3-0.2,0.7-0.4,1.1-0.5c0.4-0.1,0.8-0.2,1.2-0.2c0.9-0.1,1.8,0.4,2.3,1.2c0.6,1.1,0.8,2.3,0.8,3.5
		c0.1,1.3-0.3,2.6-1,3.7c-0.8,0.9-1.9,1.3-3,1.2c-1.1,0.1-2.2-0.3-3-1.1c-0.7-0.9-1.1-2-1-3.2L105.4,1554.1z"/>
	<path id="Path_197" class="st0" d="M114.2,1554.1h2.8c0,0.6,0.1,1.1,0.3,1.6c0.2,0.3,0.5,0.5,0.8,0.5c0.4,0,0.7-0.2,0.9-0.5
		c0.2-0.5,0.3-1.1,0.3-1.7c0.1-0.8,0-1.5-0.3-2.2c-0.2-0.4-0.6-0.6-1-0.6c-0.3,0-0.5,0.1-0.7,0.2c-0.2,0.2-0.4,0.4-0.4,0.7h-2.5
		l0.2-7.4h7v2.5h-4.7l-0.1,2.5c0.3-0.2,0.7-0.4,1.1-0.5c0.4-0.1,0.8-0.2,1.2-0.2c0.9-0.1,1.8,0.4,2.3,1.2c0.6,1.1,0.8,2.3,0.8,3.5
		c0.1,1.3-0.3,2.6-1,3.7c-0.8,0.9-1.9,1.3-3,1.2c-1.1,0.1-2.2-0.3-3-1.1c-0.7-0.9-1.1-2-1-3.2L114.2,1554.1z"/>
	<path id="Path_198" class="st0" d="M128.5,1558.2c0.2-1.7,0.6-3.4,1.1-5.1c0.6-2,1.4-3.9,2.4-5.7h-5.1v-2.7h8v2.3
		c-0.9,1.6-1.6,3.3-2.1,5.1c-0.6,2-1,4-1.2,6.1L128.5,1558.2z"/>
	<path id="Path_199" class="st0" d="M138.7,1553.9c0,0.6,0,1.2,0.2,1.7c0.1,0.3,0.5,0.5,0.8,0.5c0.3,0,0.6-0.2,0.7-0.5
		c0.2-0.6,0.2-1.2,0.2-1.8c0-0.6,0-1.2-0.2-1.8c-0.1-0.3-0.5-0.5-0.8-0.5c-0.3,0-0.6,0.2-0.8,0.5
		C138.8,1552.7,138.7,1553.3,138.7,1553.9 M138.8,1549.9c0.3-0.2,0.6-0.4,1-0.5c0.3-0.1,0.7-0.2,1-0.2c0.9-0.1,1.7,0.4,2.2,1.1
		c0.6,1,0.8,2.1,0.7,3.2c0.1,1.3-0.3,2.6-1,3.7c-0.8,0.9-1.9,1.3-3,1.2c-0.6,0-1.2-0.1-1.7-0.3c-0.5-0.2-0.9-0.5-1.3-0.9
		c-0.4-0.5-0.7-1.1-0.8-1.7c-0.2-1.3-0.3-2.6-0.2-4c0-1.2,0-2.3,0.1-3.5c0.1-0.6,0.2-1.2,0.4-1.8c0.3-0.6,0.8-1.1,1.4-1.4
		c0.7-0.3,1.5-0.5,2.3-0.5c1-0.1,2,0.3,2.8,0.9c0.7,0.7,1,1.6,1,2.5v0.1h-2.9c0-0.3-0.1-0.7-0.2-1c-0.2-0.2-0.4-0.3-0.7-0.3
		c-0.3,0-0.7,0.2-0.8,0.5c-0.2,0.6-0.3,1.1-0.2,1.7c0,0.3,0,0.4,0,0.6S138.8,1549.8,138.8,1549.9"/>
	<path id="Path_200" class="st0" d="M147.6,1553.9c0,0.6,0,1.2,0.2,1.7c0.1,0.3,0.5,0.5,0.8,0.5c0.3,0,0.6-0.2,0.7-0.5
		c0.2-0.6,0.3-1.2,0.2-1.8c0-0.6,0-1.2-0.2-1.8c-0.1-0.3-0.5-0.5-0.8-0.5c-0.3,0-0.6,0.2-0.8,0.5
		C147.6,1552.7,147.5,1553.3,147.6,1553.9 M147.7,1549.9c0.3-0.2,0.6-0.4,1-0.5c0.3-0.1,0.7-0.2,1-0.2c0.9-0.1,1.7,0.4,2.2,1.1
		c1.1,2.2,1,4.8-0.3,6.9c-0.8,0.9-1.9,1.3-3,1.2c-0.6,0-1.2-0.1-1.7-0.3c-0.5-0.2-0.9-0.5-1.3-0.9c-0.4-0.5-0.7-1.1-0.8-1.7
		c-0.2-1.3-0.3-2.6-0.2-4c0-1.2,0-2.3,0.1-3.5c0.1-0.6,0.2-1.2,0.4-1.8c0.3-0.6,0.8-1.1,1.4-1.4c0.7-0.3,1.5-0.5,2.3-0.5
		c1-0.1,2,0.3,2.8,0.9c0.7,0.7,1,1.6,1,2.5v0.1h-2.9c0-0.3-0.1-0.7-0.2-1c-0.2-0.2-0.4-0.3-0.7-0.3c-0.3,0-0.7,0.2-0.8,0.5
		c-0.2,0.6-0.3,1.1-0.2,1.7c0,0.3,0,0.4,0,0.6S147.6,1549.8,147.7,1549.9"/>
	<path id="Path_201" class="st0" d="M156.4,1553.9c0,0.6,0,1.2,0.2,1.7c0.1,0.3,0.5,0.5,0.8,0.5c0.3,0,0.6-0.2,0.7-0.5
		c0.2-0.6,0.3-1.2,0.2-1.8c0-0.6,0-1.2-0.2-1.8c-0.1-0.3-0.5-0.5-0.8-0.5c-0.3,0-0.6,0.2-0.8,0.5
		C156.4,1552.7,156.3,1553.3,156.4,1553.9 M156.5,1549.9c0.3-0.2,0.6-0.4,1-0.5c0.3-0.1,0.7-0.2,1-0.2c0.9-0.1,1.7,0.4,2.2,1.1
		c1.1,2.2,1,4.8-0.3,6.9c-0.8,0.9-1.9,1.3-3,1.2c-0.6,0-1.2-0.1-1.7-0.3c-0.5-0.2-0.9-0.5-1.3-0.9c-0.4-0.5-0.7-1.1-0.8-1.7
		c-0.2-1.3-0.3-2.6-0.2-4c0-1.2,0-2.3,0.1-3.5c0.1-0.6,0.2-1.2,0.4-1.8c0.3-0.6,0.8-1.1,1.4-1.4c0.7-0.3,1.5-0.5,2.3-0.5
		c1-0.1,2,0.3,2.8,0.9c0.7,0.7,1,1.6,1,2.5v0.1h-2.9c0-0.3-0.1-0.7-0.2-1c-0.2-0.2-0.4-0.3-0.7-0.3c-0.3,0-0.7,0.2-0.8,0.5
		c-0.2,0.6-0.3,1.1-0.2,1.7c0,0.3,0,0.4,0,0.6S156.5,1549.8,156.5,1549.9"/>
	<path id="Path_202" class="st0" d="M98,1569.3c0-0.5-0.2-0.9-0.6-1.2c-0.4-0.3-0.9-0.5-1.4-0.4c-0.6,0-1.2,0.3-1.6,0.8
		c-0.4,0.6-0.6,1.4-0.6,2.2c-0.1,0.8,0.1,1.5,0.5,2.2c0.4,0.5,0.9,0.8,1.6,0.8c1.1,0.1,2-0.7,2.1-1.8c0,0,0,0,0-0.1h1.2
		c0,0.8-0.4,1.6-1,2.2c-0.7,0.6-1.5,0.8-2.4,0.8c-1,0-1.9-0.4-2.5-1.1c-1.2-1.8-1.2-4.2,0-6c0.7-0.7,1.6-1.1,2.6-1.1
		c0.8,0,1.7,0.2,2.3,0.8c0.6,0.5,0.9,1.3,0.9,2.1L98,1569.3z"/>
	<path id="Path_203" class="st0" d="M101.9,1570.5c0,0.8,0.2,1.6,0.6,2.2c0.4,0.5,1,0.8,1.7,0.8c0.6,0,1.3-0.2,1.7-0.8
		c0.4-0.6,0.7-1.3,0.6-2.1c0-0.8-0.2-1.6-0.6-2.3c-0.4-0.5-1-0.8-1.7-0.8c-0.7,0-1.3,0.2-1.7,0.7
		C102,1569,101.8,1569.8,101.9,1570.5 M100.6,1574.4v-10.6h1.3v4c1-1.4,3-1.7,4.4-0.7c0.2,0.2,0.4,0.3,0.6,0.5c0.7,0.9,1,1.9,0.9,3
		c0.1,1.1-0.3,2.1-0.9,3c-0.6,0.7-1.5,1.1-2.5,1.1c-0.5,0-1-0.1-1.4-0.3c-0.4-0.2-0.8-0.5-1.1-0.9v1L100.6,1574.4z"/>
	<path id="Path_204" class="st0" d="M109.4,1574.4v-7.7h1.3v1.4c0.2-0.5,0.5-0.9,0.8-1.2c0.4-0.3,0.8-0.4,1.3-0.4c0.1,0,0.1,0,0.2,0
		c0,0,0.1,0,0.1,0v1.4c0,0-0.1,0-0.1,0s-0.1,0-0.2,0c-0.6,0-1.2,0.2-1.6,0.6c-0.4,0.5-0.6,1-0.5,1.6v4.3L109.4,1574.4z"/>
	<path id="Path_205" class="st0" d="M115.3,1569.9h4.2c0-0.6-0.2-1.2-0.5-1.7c-0.9-0.8-2.2-0.8-3,0
		C115.5,1568.7,115.3,1569.3,115.3,1569.9 M119.5,1571.9h1.3c-0.1,0.8-0.5,1.5-1.1,2c-0.6,0.5-1.5,0.8-2.3,0.7c-1,0-1.9-0.4-2.5-1.1
		c-0.7-0.8-1-1.9-0.9-2.9c-0.1-1.1,0.3-2.2,0.9-3.1c0.6-0.7,1.6-1.2,2.5-1.1c1-0.1,1.9,0.3,2.6,1c0.7,0.8,1,1.8,0.9,2.9
		c0,0.2,0,0.3,0,0.4s0,0.1,0,0.2h-5.6c0,0.7,0.2,1.3,0.6,1.9c0.8,0.8,2,0.9,2.9,0.3C119.1,1572.8,119.4,1572.4,119.5,1571.9"/>
	<path id="Path_206" class="st0" d="M59,1574.4l-2.3-7.7H58l1.6,5.9l1.5-5.9h1.5l1.5,5.9l1.7-5.9h1.3l-2.3,7.7h-1.3l-1.6-5.9
		l-1.6,5.9H59z"/>
	<path id="Path_207" class="st0" d="M69.7,1574.4l-2.3-7.7h1.3l1.6,5.9l1.5-5.9h1.5l1.5,5.9l1.7-5.9H78l-2.3,7.7h-1.3l-1.6-5.9
		l-1.6,5.9H69.7z"/>
	<path id="Path_208" class="st0" d="M80.5,1574.4l-2.3-7.7h1.3l1.6,5.9l1.5-5.9h1.5l1.5,5.9l1.7-5.9h1.3l-2.4,7.7H85l-1.6-5.9
		l-1.6,5.9H80.5z"/>
	<path id="Path_209" class="st0" d="M131.5,1569.3c0-0.5-0.2-0.9-0.6-1.2c-0.4-0.3-0.9-0.5-1.4-0.4c-0.6,0-1.2,0.3-1.6,0.8
		c-0.4,0.6-0.6,1.4-0.6,2.2c0,0.8,0.1,1.5,0.6,2.2c0.4,0.5,0.9,0.8,1.6,0.8c1.1,0.1,2-0.7,2.1-1.8c0,0,0,0,0-0.1h1.2
		c0,0.8-0.4,1.6-1,2.2c-0.7,0.6-1.5,0.8-2.4,0.8c-1,0-1.9-0.4-2.5-1.1c-1.2-1.8-1.2-4.2,0-6c0.7-0.7,1.6-1.1,2.6-1.1
		c0.8,0,1.7,0.2,2.3,0.8c0.6,0.5,0.9,1.3,0.9,2.1L131.5,1569.3z"/>
	<path id="Path_210" class="st0" d="M135,1570.6c-0.1,0.8,0.2,1.6,0.6,2.2c0.9,1,2.4,1,3.4,0.1c0,0,0.1-0.1,0.1-0.1
		c0.8-1.3,0.8-3,0-4.4c-0.4-0.5-1.1-0.8-1.7-0.8c-0.7,0-1.3,0.2-1.8,0.8C135.2,1569,135,1569.8,135,1570.6 M133.7,1570.6
		c-0.1-1.1,0.3-2.2,1-3c1.5-1.4,3.9-1.4,5.4,0c1.3,1.8,1.3,4.2,0,6c-1.5,1.4-3.9,1.4-5.4,0C134,1572.7,133.6,1571.7,133.7,1570.6"/>
	<path id="Path_211" class="st0" d="M155.1,1574.4v-10.6h1.3v6.4l3.5-3.5h1.6l-2.9,2.8l2.8,4.9H160l-2.3-4l-1.4,1.3v2.7
		L155.1,1574.4z"/>
	<path id="Path_212" class="st0" d="M148,1566.7v4.7c-0.1,0.6,0.1,1.1,0.4,1.6c0.3,0.3,0.8,0.5,1.2,0.4c0.6,0,1.3-0.2,1.7-0.7
		c0.4-0.6,0.6-1.2,0.6-1.9v-4.2h1.3v7.7h-1.2v-1.2c-0.2,0.4-0.6,0.8-1,1c-0.5,0.2-1,0.3-1.5,0.3c-0.5,0-1-0.1-1.4-0.3
		c-0.4-0.2-0.7-0.4-0.9-0.8c-0.1-0.2-0.2-0.4-0.3-0.7c-0.1-0.4-0.1-0.8-0.1-1.2v-5L148,1566.7z"/>
	<rect id="Rectangle_16" x="143" y="1572.8" class="st0" width="1.5" height="1.6"/>
	<rect id="Rectangle_17" x="122.6" y="1572.8" class="st0" width="1.5" height="1.6"/>
	<rect id="Rectangle_18" x="89.1" y="1572.8" class="st0" width="1.5" height="1.6"/>
</g>
</svg>
