<svg xmlns="http://www.w3.org/2000/svg" width="104.804" height="72.5" viewBox="0 0 104.804 72.5">
  <g id="Group_207" data-name="Group 207" transform="translate(-56.693 -1502.189)">
    <path id="Path_187" data-name="Path 187" d="M127.66,1522.074h-8.625v-4.34h8.834l.024,0a2.162,2.162,0,0,1,1.93,2.127,2.235,2.235,0,0,1-2.163,2.211m-8.625-14.242H128.1l.03,0a2.124,2.124,0,0,1,1.768,2.075,2.221,2.221,0,0,1-1.85,2.172l-9,.013Zm12.828,6.925c3.3-1.1,3.9-3.868,3.893-6.128-.006-3.451-2.441-6.434-9.65-6.434l-13.455-.006v25.929h13.42c7.251,0,9.924-3.725,9.924-7.456a6.341,6.341,0,0,0-4.132-5.906" transform="translate(-27.368)" fill="#b9b9b9"/>
    <path id="Path_188" data-name="Path 188" d="M217.314,1502.2h22.738l-.014,5.657H223.632l.016,4.178H238.44v5.686H223.648v4.524h16.409l-.006,5.93H217.314Z" transform="translate(-78.56 -0.007)" fill="#b9b9b9"/>
    <path id="Path_189" data-name="Path 189" d="M181.7,1510.313a2.144,2.144,0,0,1-2.028,1.783l-8.874,0v-4.153h8.878a2.031,2.031,0,0,1,2.024,1.8Zm-3.443-8.041H164.508v25.935h6.315v-10.5l6.952-.005a3.615,3.615,0,0,1,3.543,3.671v6.808h6.18l-.011-8.374a5.418,5.418,0,0,0-3.746-5.02,5.806,5.806,0,0,0,3.828-5.73c0-5.611-4.817-6.787-9.308-6.787" transform="translate(-52.733 -0.041)" fill="#b9b9b9"/>
    <path id="Path_190" data-name="Path 190" d="M81.455,1521.907c-.092,0-8.634.165-11.582-.122a6.659,6.659,0,0,1-6.429-6.854c0-3.581,2.436-6.215,6.221-6.708,1.8-.236,11.635-.124,11.736-.122h.209l.021-5.9h-.214l-11.129.019a16.661,16.661,0,0,0-5.4,1.059A13.27,13.27,0,0,0,59.8,1507.4a12.914,12.914,0,0,0-2.557,7.732,15.523,15.523,0,0,0,.214,2.6,12.637,12.637,0,0,0,7.074,8.938,19.141,19.141,0,0,0,7.054,1.422l2.094.043c0,.005,7.762.011,7.762.011h.2l.021-6.241Z" transform="translate(-0.268 -0.008)" fill="#b9b9b9"/>
    <path id="Path_191" data-name="Path 191" d="M60.749,1592.038v1a11.331,11.331,0,0,0,.225,2.952.886.886,0,0,0,1.688,0,11.246,11.246,0,0,0,.228-2.952v-2.215a10.061,10.061,0,0,0-.228-2.78.891.891,0,0,0-1.688.022,11.494,11.494,0,0,0-.225,2.98Zm-3.063,0a31.679,31.679,0,0,1,.147-3.66,4.224,4.224,0,0,1,.526-1.686,3.339,3.339,0,0,1,1.4-1.222,4.714,4.714,0,0,1,2.056-.425,4.778,4.778,0,0,1,2.062.427,3.341,3.341,0,0,1,1.4,1.238,4.356,4.356,0,0,1,.517,1.631,22.7,22.7,0,0,1,.155,3.105c0,1.488-.026,2.6-.078,3.342a10.635,10.635,0,0,1-.25,1.822,2.857,2.857,0,0,1-1.318,1.759,4.484,4.484,0,0,1-2.49.673,4.761,4.761,0,0,1-2.1-.439,3.332,3.332,0,0,1-1.416-1.287,4.193,4.193,0,0,1-.481-1.683,32.332,32.332,0,0,1-.14-3.594" transform="translate(-0.486 -40.525)" fill="#b9b9b9"/>
    <path id="Path_192" data-name="Path 192" d="M78.538,1598.767v-9.412h-2.72v-2.082h.153a4.308,4.308,0,0,0,2.346-.556,2.71,2.71,0,0,0,1.168-1.673h2.1v13.723Z" transform="translate(-9.354 -40.525)" fill="#b9b9b9"/>
    <path id="Path_193" data-name="Path 193" d="M95.363,1594.456a4.291,4.291,0,0,0,.248,1.745.86.86,0,0,0,.84.5.75.75,0,0,0,.735-.487,5.224,5.224,0,0,0,.213-1.824,4.62,4.62,0,0,0-.234-1.784.838.838,0,0,0-.818-.483.784.784,0,0,0-.765.5,5.165,5.165,0,0,0-.219,1.83m.088-3.991a4.084,4.084,0,0,1,.989-.481,3.439,3.439,0,0,1,1.049-.161,2.559,2.559,0,0,1,2.244,1.079,7.307,7.307,0,0,1-.259,6.918,3.7,3.7,0,0,1-3.039,1.222,4.951,4.951,0,0,1-1.742-.283,3.447,3.447,0,0,1-1.3-.858,3.6,3.6,0,0,1-.846-1.735,21.437,21.437,0,0,1-.243-3.978,32.668,32.668,0,0,1,.13-3.474,5.818,5.818,0,0,1,.436-1.766,2.933,2.933,0,0,1,1.363-1.417,4.906,4.906,0,0,1,2.276-.487,3.965,3.965,0,0,1,2.781.908,3.263,3.263,0,0,1,.992,2.537v.089H97.382a1.755,1.755,0,0,0-.249-.966.787.787,0,0,0-.682-.32.8.8,0,0,0-.785.485,4.42,4.42,0,0,0-.234,1.719c0,.254,0,.449,0,.58s.007.26.014.387" transform="translate(-17.415 -40.525)" fill="#b9b9b9"/>
    <path id="Path_194" data-name="Path 194" d="M113.05,1598.767v-9.412h-2.72v-2.082h.153a4.319,4.319,0,0,0,2.346-.556,2.718,2.718,0,0,0,1.168-1.673h2.1v13.723Z" transform="translate(-26.234 -40.525)" fill="#b9b9b9"/>
    <path id="Path_195" data-name="Path 195" d="M138.954,1594.039v-5.462l-2.478,5.462Zm-.344,4.968v-2.631h-4.5V1593.8l4.306-8.268h3.117v8.506h1.178v2.337h-1.178v2.631Z" transform="translate(-37.865 -40.764)" fill="#b9b9b9"/>
    <path id="Path_196" data-name="Path 196" d="M151.944,1594.8h2.821a3.983,3.983,0,0,0,.285,1.619.875.875,0,0,0,.834.463.925.925,0,0,0,.876-.492,3.773,3.773,0,0,0,.262-1.661,6.054,6.054,0,0,0-.266-2.239.989.989,0,0,0-.972-.558,1.046,1.046,0,0,0-.7.239,1.573,1.573,0,0,0-.431.727h-2.532l.249-7.4h7.042v2.453h-4.711l-.1,2.48a4.553,4.553,0,0,1,1.109-.546,3.826,3.826,0,0,1,1.172-.179,2.569,2.569,0,0,1,2.313,1.151,6.5,6.5,0,0,1,.751,3.5,5.783,5.783,0,0,1-1.012,3.712,3.683,3.683,0,0,1-3.024,1.239,3.859,3.859,0,0,1-2.957-1.1,4.459,4.459,0,0,1-1.019-3.15Z" transform="translate(-46.588 -40.745)" fill="#b9b9b9"/>
    <path id="Path_197" data-name="Path 197" d="M169.2,1594.8h2.823a3.986,3.986,0,0,0,.286,1.619.871.871,0,0,0,.833.463.922.922,0,0,0,.876-.492,3.775,3.775,0,0,0,.262-1.661,6.043,6.043,0,0,0-.266-2.239.987.987,0,0,0-.972-.558,1.044,1.044,0,0,0-.7.239,1.54,1.54,0,0,0-.427.727h-2.536l.249-7.4h7.042v2.453h-4.711l-.1,2.48a4.628,4.628,0,0,1,1.111-.546,3.831,3.831,0,0,1,1.172-.179,2.567,2.567,0,0,1,2.313,1.151,6.471,6.471,0,0,1,.752,3.5,5.783,5.783,0,0,1-1.012,3.712,3.68,3.68,0,0,1-3.024,1.239,3.858,3.858,0,0,1-2.957-1.1,4.462,4.462,0,0,1-1.021-3.15Z" transform="translate(-55.025 -40.745)" fill="#b9b9b9"/>
    <path id="Path_198" data-name="Path 198" d="M195.713,1599.006a25.063,25.063,0,0,1,1.111-5.1,40.465,40.465,0,0,1,2.362-5.688H194.12v-2.681H202.1v2.319a24.121,24.121,0,0,0-2.086,5.08,33.982,33.982,0,0,0-1.156,6.074Z" transform="translate(-67.216 -40.764)" fill="#b9b9b9"/>
    <path id="Path_199" data-name="Path 199" d="M214.371,1594.456a4.289,4.289,0,0,0,.249,1.745.858.858,0,0,0,.84.5.748.748,0,0,0,.736-.487,5.249,5.249,0,0,0,.213-1.824,4.627,4.627,0,0,0-.235-1.784.837.837,0,0,0-.818-.483.78.78,0,0,0-.763.5,5.078,5.078,0,0,0-.221,1.83m.09-3.991a4.021,4.021,0,0,1,.988-.481,3.436,3.436,0,0,1,1.049-.161,2.556,2.556,0,0,1,2.243,1.079,5.663,5.663,0,0,1,.747,3.224,5.722,5.722,0,0,1-1,3.694,3.7,3.7,0,0,1-3.042,1.222,4.964,4.964,0,0,1-1.743-.283,3.481,3.481,0,0,1-1.3-.858,3.609,3.609,0,0,1-.847-1.735,21.5,21.5,0,0,1-.243-3.978,32.712,32.712,0,0,1,.129-3.474,5.845,5.845,0,0,1,.438-1.766,2.925,2.925,0,0,1,1.363-1.417,4.9,4.9,0,0,1,2.276-.487,3.962,3.962,0,0,1,2.781.908,3.267,3.267,0,0,1,.991,2.537v.089h-2.9a1.738,1.738,0,0,0-.248-.966.788.788,0,0,0-.682-.32.8.8,0,0,0-.783.485,4.36,4.36,0,0,0-.237,1.719c0,.254,0,.449,0,.58s.008.26.016.387" transform="translate(-75.623 -40.525)" fill="#b9b9b9"/>
    <path id="Path_200" data-name="Path 200" d="M231.627,1594.456a4.289,4.289,0,0,0,.249,1.745.859.859,0,0,0,.84.5.748.748,0,0,0,.735-.487,5.224,5.224,0,0,0,.213-1.824,4.632,4.632,0,0,0-.234-1.784.839.839,0,0,0-.818-.483.784.784,0,0,0-.765.5,5.165,5.165,0,0,0-.219,1.83m.087-3.991a4.1,4.1,0,0,1,.99-.481,3.438,3.438,0,0,1,1.047-.161A2.561,2.561,0,0,1,236,1590.9a7.312,7.312,0,0,1-.259,6.918,3.7,3.7,0,0,1-3.04,1.222,4.956,4.956,0,0,1-1.743-.283,3.449,3.449,0,0,1-1.3-.858,3.6,3.6,0,0,1-.846-1.735,21.451,21.451,0,0,1-.243-3.978,32.565,32.565,0,0,1,.129-3.474,5.8,5.8,0,0,1,.437-1.766,2.93,2.93,0,0,1,1.363-1.417,4.908,4.908,0,0,1,2.276-.487,3.967,3.967,0,0,1,2.782.908,3.265,3.265,0,0,1,.991,2.537v.089h-2.895a1.755,1.755,0,0,0-.249-.966.788.788,0,0,0-.681-.32.805.805,0,0,0-.785.485,4.43,4.43,0,0,0-.234,1.719c0,.254,0,.449,0,.58s.008.26.013.387" transform="translate(-84.063 -40.525)" fill="#b9b9b9"/>
    <path id="Path_201" data-name="Path 201" d="M248.879,1594.456a4.284,4.284,0,0,0,.25,1.745.86.86,0,0,0,.841.5.745.745,0,0,0,.733-.487,5.2,5.2,0,0,0,.213-1.824,4.55,4.55,0,0,0-.234-1.784.835.835,0,0,0-.819-.483.782.782,0,0,0-.763.5,5.14,5.14,0,0,0-.221,1.83m.089-3.991a4.06,4.06,0,0,1,.988-.481,3.46,3.46,0,0,1,1.048-.161,2.559,2.559,0,0,1,2.245,1.079,7.3,7.3,0,0,1-.259,6.918,3.7,3.7,0,0,1-3.042,1.222,4.93,4.93,0,0,1-1.738-.283,3.453,3.453,0,0,1-1.305-.858,3.6,3.6,0,0,1-.847-1.735,21.444,21.444,0,0,1-.245-3.978,33.282,33.282,0,0,1,.129-3.474,5.935,5.935,0,0,1,.439-1.766,2.919,2.919,0,0,1,1.365-1.417,4.885,4.885,0,0,1,2.273-.487,3.96,3.96,0,0,1,2.78.908,3.259,3.259,0,0,1,.993,2.537v.089h-2.9a1.761,1.761,0,0,0-.246-.966.793.793,0,0,0-.682-.32.806.806,0,0,0-.785.485,4.406,4.406,0,0,0-.235,1.719c0,.254,0,.449.007.58s.005.26.011.387" transform="translate(-92.501 -40.525)" fill="#b9b9b9"/>
    <path id="Path_202" data-name="Path 202" d="M132.244,1630.833a1.644,1.644,0,0,0-.574-1.218,2.115,2.115,0,0,0-1.4-.433,1.933,1.933,0,0,0-1.629.756,3.566,3.566,0,0,0-.566,2.158,3.669,3.669,0,0,0,.544,2.176,1.813,1.813,0,0,0,1.558.762,1.948,1.948,0,0,0,2.124-1.829h1.236a3.1,3.1,0,0,1-1,2.214,3.48,3.48,0,0,1-2.412.8,3.056,3.056,0,0,1-2.487-1.084,5.355,5.355,0,0,1,.044-6.019,3.219,3.219,0,0,1,2.591-1.092,3.474,3.474,0,0,1,2.329.756,2.752,2.752,0,0,1,.925,2.058Z" transform="translate(-34.254 -61.544)" fill="#b9b9b9"/>
    <path id="Path_203" data-name="Path 203" d="M143.926,1629.534a3.6,3.6,0,0,0,.593,2.217,1.975,1.975,0,0,0,1.684.774,2.063,2.063,0,0,0,1.684-.751,3.183,3.183,0,0,0,.614-2.073,3.73,3.73,0,0,0-.592-2.254,1.98,1.98,0,0,0-1.692-.8,2.056,2.056,0,0,0-1.717.725,3.449,3.449,0,0,0-.574,2.162m-1.222,3.909v-10.6h1.267v3.968a3.137,3.137,0,0,1,4.963-.2,4.572,4.572,0,0,1,.926,3.009,4.474,4.474,0,0,1-.919,2.961,3.035,3.035,0,0,1-2.46,1.1,3.231,3.231,0,0,1-1.418-.293,3.036,3.036,0,0,1-1.091-.914v.97Z" transform="translate(-42.068 -59.01)" fill="#b9b9b9"/>
    <path id="Path_204" data-name="Path 204" d="M159.8,1636.058v-7.71h1.251v1.385a2.51,2.51,0,0,1,.844-1.163,2.1,2.1,0,0,1,1.3-.388,1.554,1.554,0,0,1,.206.007.536.536,0,0,1,.133.019v1.362c-.037,0-.077,0-.122-.008s-.1,0-.192,0a2.094,2.094,0,0,0-1.58.567,2.3,2.3,0,0,0-.545,1.639v4.294Z" transform="translate(-50.429 -61.624)" fill="#b9b9b9"/>
    <path id="Path_205" data-name="Path 205" d="M170.016,1631.415h4.228a2.361,2.361,0,0,0-.548-1.658,2.266,2.266,0,0,0-3.039-.015,2.662,2.662,0,0,0-.641,1.673m4.2,2.069h1.276a3.085,3.085,0,0,1-1.1,2.006,3.438,3.438,0,0,1-2.272.74,3.168,3.168,0,0,1-2.532-1.084,4.355,4.355,0,0,1-.926-2.943,4.678,4.678,0,0,1,.918-3.08,3.134,3.134,0,0,1,2.54-1.11,3.27,3.27,0,0,1,2.572,1.021,4.212,4.212,0,0,1,.915,2.887c0,.163,0,.277,0,.356s-.007.148-.014.222H170.02a2.864,2.864,0,0,0,.6,1.881,2.294,2.294,0,0,0,2.924.263,1.91,1.91,0,0,0,.67-1.159" transform="translate(-54.765 -61.542)" fill="#b9b9b9"/>
    <path id="Path_206" data-name="Path 206" d="M58.995,1636.218l-2.3-7.71H58.04l1.632,5.9,1.522-5.9h1.5l1.5,5.9,1.687-5.9H67.22l-2.347,7.71h-1.31l-1.622-5.941-1.636,5.941Z" transform="translate(0 -61.783)" fill="#b9b9b9"/>
    <path id="Path_207" data-name="Path 207" d="M80,1636.218l-2.307-7.71h1.348l1.632,5.9,1.522-5.9H83.7l1.5,5.9,1.7-5.9h1.332l-2.346,7.71H84.568l-1.621-5.941-1.64,5.941Z" transform="translate(-10.272 -61.783)" fill="#b9b9b9"/>
    <path id="Path_208" data-name="Path 208" d="M101.006,1636.218l-2.3-7.71h1.347l1.632,5.9,1.521-5.9h1.5l1.5,5.9,1.7-5.9h1.332l-2.351,7.71h-1.306l-1.628-5.941-1.636,5.941Z" transform="translate(-20.548 -61.783)" fill="#b9b9b9"/>
    <path id="Path_209" data-name="Path 209" d="M197.8,1630.833a1.671,1.671,0,0,0-.57-1.218,2.138,2.138,0,0,0-1.414-.433,1.923,1.923,0,0,0-1.622.756,3.514,3.514,0,0,0-.574,2.158,3.674,3.674,0,0,0,.551,2.176,1.818,1.818,0,0,0,1.563.762,1.953,1.953,0,0,0,2.121-1.829h1.236a3.076,3.076,0,0,1-1,2.214,3.481,3.481,0,0,1-2.412.8,3.054,3.054,0,0,1-2.488-1.084,5.373,5.373,0,0,1,.037-6.019,3.234,3.234,0,0,1,2.591-1.092,3.46,3.46,0,0,1,2.328.756,2.761,2.761,0,0,1,.933,2.058Z" transform="translate(-66.319 -61.544)" fill="#b9b9b9"/>
    <path id="Path_210" data-name="Path 210" d="M208.759,1632.116a3.4,3.4,0,0,0,.615,2.191,2.4,2.4,0,0,0,3.5,0,4.24,4.24,0,0,0,0-4.375,2.106,2.106,0,0,0-1.743-.763,2.132,2.132,0,0,0-1.766.763,3.41,3.41,0,0,0-.606,2.184m-1.329,0a4.37,4.37,0,0,1,.97-3.02,3.99,3.99,0,0,1,5.442,0,5.177,5.177,0,0,1,.007,6.044,3.964,3.964,0,0,1-5.445,0,4.378,4.378,0,0,1-.974-3.024" transform="translate(-73.726 -61.546)" fill="#b9b9b9"/>
    <path id="Path_211" data-name="Path 211" d="M249.29,1633.446v-10.605h1.292v6.36l3.487-3.465H255.7l-2.88,2.813,2.84,4.9H254.2l-2.254-3.994-1.366,1.306v2.688Z" transform="translate(-94.2 -59.012)" fill="#b9b9b9"/>
    <path id="Path_212" data-name="Path 212" d="M234.131,1628.508v4.73a2.585,2.585,0,0,0,.355,1.577,1.458,1.458,0,0,0,1.208.444,2.16,2.16,0,0,0,1.7-.659,2.865,2.865,0,0,0,.577-1.94v-4.153h1.288v7.71h-1.237v-1.155a2.659,2.659,0,0,1-1.04,1.011,3.21,3.21,0,0,1-1.506.337,3.342,3.342,0,0,1-1.4-.27,2.074,2.074,0,0,1-.918-.781,1.977,1.977,0,0,1-.26-.655,7.031,7.031,0,0,1-.075-1.2v-5Z" transform="translate(-86.147 -61.784)" fill="#b9b9b9"/>
    <rect id="Rectangle_16" data-name="Rectangle 16" width="1.478" height="1.61" transform="translate(142.959 1572.826)" fill="#b9b9b9"/>
    <rect id="Rectangle_17" data-name="Rectangle 17" width="1.48" height="1.61" transform="translate(122.616 1572.826)" fill="#b9b9b9"/>
    <rect id="Rectangle_18" data-name="Rectangle 18" width="1.478" height="1.61" transform="translate(89.125 1572.826)" fill="#b9b9b9"/>
  </g>
</svg>
