<svg xmlns="http://www.w3.org/2000/svg" viewBox="0 0 95.93 23.84"><defs><style>.cls-1{fill:#fff;}</style></defs><title>Asset 3</title><g id="Layer_2" data-name="Layer 2"><g id="Layer_1-2" data-name="Layer 1"><path class="cls-1" d="M43.61,11.53c3-1,3.58-3.55,3.57-5.62C47.18,2.74,44.94,0,38.33,0H26V23.8H38.3c6.65,0,9.1-3.42,9.1-6.85a5.82,5.82,0,0,0-3.79-5.42M31.84,5.18h8.35a2,2,0,0,1,1.62,1.9,2,2,0,0,1-1.7,2l-8.26,0Zm7.92,13.07H31.84v-4H40a2,2,0,0,1,1.77,1.95,2.06,2.06,0,0,1-2,2"/><polygon class="cls-1" points="75.06 0 75.06 23.84 95.93 23.84 95.93 18.41 80.87 18.41 80.87 14.25 94.44 14.25 94.44 9.03 80.87 9.03 80.85 5.2 95.91 5.2 95.92 0 75.06 0"/><path class="cls-1" d="M62.92,0H50.3V23.84h5.79V14.21h6.38a3.32,3.32,0,0,1,3.25,3.37v6.25h5.67V16.13a5,5,0,0,0-3.44-4.61,5.33,5.33,0,0,0,3.52-5.26C71.46,1.12,67,0,62.92,0m3.16,7.39a2,2,0,0,1-1.87,1.63H56.07V5.24h8.15A1.88,1.88,0,0,1,66.08,6.9Z"/><path class="cls-1" d="M22.22,18.09c-.08,0-7.92.15-10.62-.12a6.11,6.11,0,0,1-5.91-6.28C5.69,8.4,7.93,6,11.4,5.53c1.65-.22,10.68-.12,10.77-.11h.19l0-5.42h-.19L12,0A15.23,15.23,0,0,0,7,1,12.11,12.11,0,0,0,2.35,4.77,11.82,11.82,0,0,0,0,11.87a13.53,13.53,0,0,0,.2,2.39,11.6,11.6,0,0,0,6.49,8.2,17.75,17.75,0,0,0,6.47,1.3l1.93,0h7.3l0-5.73Z"/></g></g></svg>