<svg xmlns="http://www.w3.org/2000/svg" viewBox="0 0 121.73 29.59"><defs><style>.cls-1{fill:#fdc30e;}.cls-2{fill:#1d1d1b;}</style></defs><title>metro-icon</title><g id="Layer_2" data-name="Layer 2"><g id="Layer_1-2" data-name="Layer 1"><polygon class="cls-1" points="117.18 0 4.55 0 0 4.55 0 20.48 4.55 25.03 56.31 25.03 56.31 25.03 60.87 29.59 65.43 25.03 117.18 25.03 121.73 20.48 121.73 4.55 117.18 0"/><path class="cls-2" d="M13.38,13.48a2,2,0,0,0,2.17,2c1.06,0,1.74-.45,1.74-1.24s-.44-1-1.37-1.16l-1.42-.27c-1.06-.21-1.79-.78-1.79-1.89s1-2.11,2.56-2.11c1.8,0,2.83,1,2.85,2.58l-.9,0a1.76,1.76,0,0,0-1.94-1.85c-1,0-1.61.49-1.61,1.28s.46.94,1.3,1.09l1.29.25c1.31.25,2,.82,2,2,0,1.32-1.14,2.08-2.68,2.08-1.77,0-3.05-1-3.05-2.69Z"/><path class="cls-2" d="M19.45,11.81H18.7V11.3l.32-.06c.46-.09.56-.32.68-.8l.15-.69h.53v1.38h1.4v.68h-1.4v3c0,.45.18.65.61.65a2.15,2.15,0,0,0,.94-.29v.63a1.93,1.93,0,0,1-1.28.42c-.7,0-1.2-.33-1.2-1.29Z"/><path class="cls-2" d="M22.78,15h1.14V16.1H22.78Z"/><path class="cls-2" d="M28.07,16.1h-1V8.93H29.7c1.77,0,2.78.84,2.78,2.24s-1,2.25-2.78,2.25H28.07Zm1.61-3.48c1.25,0,1.85-.52,1.85-1.45s-.6-1.43-1.85-1.43H28.07v2.88Z"/><path class="cls-2" d="M37.73,14.43a2.21,2.21,0,0,1-2.32,1.8,2.43,2.43,0,0,1-2.56-2.54A2.54,2.54,0,0,1,35.36,11a2.29,2.29,0,0,1,2.39,2.48v.37h-4a1.64,1.64,0,0,0,1.63,1.65,1.41,1.41,0,0,0,1.52-1.16Zm-.95-1.2a1.41,1.41,0,0,0-1.42-1.52,1.58,1.58,0,0,0-1.54,1.52Z"/><path class="cls-2" d="M38.9,11.81h-.75V11.3l.32-.06c.47-.09.57-.32.68-.8l.15-.69h.53v1.38h1.4v.68h-1.4v3c0,.45.19.65.62.65a2.07,2.07,0,0,0,.93-.29v.63a1.91,1.91,0,0,1-1.27.42c-.71,0-1.21-.33-1.21-1.29Z"/><path class="cls-2" d="M46.74,14.43a2.21,2.21,0,0,1-2.32,1.8,2.43,2.43,0,0,1-2.56-2.54A2.54,2.54,0,0,1,44.37,11a2.29,2.29,0,0,1,2.39,2.48v.37h-4a1.64,1.64,0,0,0,1.63,1.65A1.43,1.43,0,0,0,46,14.33Zm-.94-1.2a1.43,1.43,0,0,0-1.43-1.52,1.59,1.59,0,0,0-1.54,1.52Z"/><path class="cls-2" d="M50.71,12.07a1.41,1.41,0,0,0-.77-.2c-.72,0-1.25.64-1.25,1.6V16.1h-.95v-5h.95v1A1.56,1.56,0,0,1,50.1,11a1,1,0,0,1,.7.23Z"/><path class="cls-2" d="M51.58,8.93H52.7V10c0,.8-.2,1.24-1.12,1.25v-.56c.43,0,.53-.18.53-.68h-.53Z"/><path class="cls-2" d="M53.63,14.37a1.32,1.32,0,0,0,1.48,1.17c.66,0,1.15-.24,1.15-.74s-.33-.63-.94-.74l-.84-.15c-.94-.15-1.49-.54-1.49-1.4S53.75,11,54.9,11c1.32,0,2.09.61,2.18,1.76l-.76.05a1.23,1.23,0,0,0-1.42-1.12c-.63,0-1,.29-1,.74s.25.61.76.7l.94.15c1,.16,1.59.54,1.59,1.44s-.88,1.52-2,1.52-2.18-.58-2.27-1.8Z"/><path class="cls-2" d="M60.67,13.48a2,2,0,0,0,2.16,2c1.07,0,1.74-.45,1.74-1.24s-.43-1-1.37-1.16l-1.42-.27C60.72,12.58,60,12,60,10.9s1-2.11,2.56-2.11c1.8,0,2.84,1,2.85,2.58l-.9,0a1.75,1.75,0,0,0-1.93-1.85c-1,0-1.62.49-1.62,1.28s.47.94,1.3,1.09l1.29.25c1.31.25,2,.82,2,2,0,1.32-1.14,2.08-2.68,2.08-1.77,0-3-1-3-2.69Z"/><path class="cls-2" d="M70.35,15.06a1.85,1.85,0,0,1-1.79,1.17c-1.48,0-2.27-1.14-2.27-2.61S67.08,11,68.56,11a1.87,1.87,0,0,1,1.79,1.18v-1h.94V18h-.94Zm0-1.59a1.56,1.56,0,0,0-1.58-1.72c-1,0-1.53.73-1.53,1.87s.55,1.86,1.53,1.86a1.56,1.56,0,0,0,1.58-1.73Z"/><path class="cls-2" d="M75.92,11.13h1v5h-1v-.88a1.72,1.72,0,0,1-1.63,1c-1.29,0-1.77-.85-1.77-2V11.13h.94v3c0,.83.37,1.36,1.15,1.36A1.36,1.36,0,0,0,75.92,14Z"/><path class="cls-2" d="M82.17,15.12a.35.35,0,0,0,.38.39,1,1,0,0,0,.44-.12v.51a1,1,0,0,1-.77.3,1,1,0,0,1-.93-1,2,2,0,0,1-1.78,1c-1,0-1.6-.52-1.6-1.37s.81-1.33,2-1.57L81.26,13v-.19a1,1,0,0,0-1.09-1.1,1.22,1.22,0,0,0-1.26,1l-.84-.11A2,2,0,0,1,80.18,11a1.75,1.75,0,0,1,2,1.9Zm-.91-1.48-1.12.24c-.78.17-1.28.32-1.28.92,0,.42.28.74.85.74a1.54,1.54,0,0,0,1.55-1.66Z"/><path class="cls-2" d="M86.7,12.07a1.44,1.44,0,0,0-.78-.2c-.71,0-1.25.64-1.25,1.6V16.1h-.94v-5h.94v1A1.56,1.56,0,0,1,86.08,11a1,1,0,0,1,.71.23Z"/><path class="cls-2" d="M91.91,14.43a2.21,2.21,0,0,1-2.32,1.8A2.43,2.43,0,0,1,87,13.69,2.54,2.54,0,0,1,89.54,11a2.29,2.29,0,0,1,2.39,2.48v.37H88a1.64,1.64,0,0,0,1.63,1.65,1.41,1.41,0,0,0,1.52-1.16Zm-1-1.2a1.42,1.42,0,0,0-1.42-1.52A1.6,1.6,0,0,0,88,13.23Z"/><path class="cls-2" d="M108.5,11.51a1,1,0,1,0,1,1A1,1,0,0,0,108.5,11.51Z"/><path class="cls-2" d="M105.53,13.44a.94.94,0,1,0-.94-.94A.94.94,0,0,0,105.53,13.44Z"/><path class="cls-2" d="M104,11.79a.79.79,0,1,0-.78-.79A.79.79,0,0,0,104,11.79Z"/><path class="cls-2" d="M106.09,11a.94.94,0,1,0,.94-.94A.94.94,0,0,0,106.09,11Z"/><path class="cls-2" d="M105.53,10.41a.9.9,0,1,0-.9-.89A.89.89,0,0,0,105.53,10.41Z"/><path class="cls-2" d="M104,8.82a.79.79,0,1,0,0-1.58.79.79,0,0,0,0,1.58Z"/><path class="cls-2" d="M102.59,13.29a.79.79,0,1,0,0-1.58.79.79,0,1,0,0,1.58Z"/><path class="cls-2" d="M102.59,8.82a.7.7,0,1,0,.69.7A.7.7,0,0,0,102.59,8.82Z"/><path class="cls-2" d="M101,7.43a.61.61,0,1,0,0,1.22.61.61,0,0,0,0-1.22Z"/><path class="cls-2" d="M104,14.78a.79.79,0,1,0,0-1.58.79.79,0,0,0,0,1.58Z"/><path class="cls-2" d="M102.59,14.77a.7.7,0,0,0-.7.7.7.7,0,1,0,.7-.7Z"/><path class="cls-2" d="M101,16.34a.61.61,0,1,0,0,1.21.61.61,0,1,0,0-1.21Z"/><path class="cls-2" d="M102.59,7.24a.7.7,0,0,0,.69-.7.7.7,0,0,0-1.39,0A.7.7,0,0,0,102.59,7.24Z"/><path class="cls-2" d="M107,13.1A.94.94,0,1,0,108,14,.94.94,0,0,0,107,13.1Z"/><path class="cls-2" d="M105.53,14.61a.9.9,0,0,0,0,1.8.9.9,0,1,0,0-1.8Z"/><path class="cls-2" d="M104,16.21a.79.79,0,1,0,0,1.58.79.79,0,1,0,0-1.58Z"/><path class="cls-2" d="M102.59,17.79a.7.7,0,1,0,.69.7A.7.7,0,0,0,102.59,17.79Z"/><path class="cls-2" d="M99.54,12a.5.5,0,0,0-.5.5.5.5,0,0,0,.5.5.51.51,0,0,0,.5-.5A.5.5,0,0,0,99.54,12Z"/><path class="cls-2" d="M98,13.59a.4.4,0,0,0,0,.79.4.4,0,1,0,0-.79Z"/><path class="cls-2" d="M98,10.6a.4.4,0,0,0,0,.8.4.4,0,1,0,0-.8Z"/><path class="cls-2" d="M99.54,9a.5.5,0,0,0-.5.5.5.5,0,0,0,.5.5.51.51,0,0,0,.5-.5A.5.5,0,0,0,99.54,9Z"/><path class="cls-2" d="M99.54,15a.5.5,0,1,0,0,1,.5.5,0,0,0,0-1Z"/><path class="cls-2" d="M101,11.59a.59.59,0,1,0,0-1.18.59.59,0,1,0,0,1.18Z"/><path class="cls-2" d="M101,14.57a.59.59,0,1,0,0-1.17.59.59,0,1,0,0,1.17Z"/><path class="cls-2" d="M96.56,12.2a.3.3,0,1,0,0,.59.3.3,0,0,0,0-.59Z"/></g></g></svg>